<svg width="24" height="24" viewBox="0 0 24 24" fill="none" xmlns="http://www.w3.org/2000/svg">
<path d="M15.2498 14.1667H11.9998M11.9998 14.1667H8.74984M11.9998 14.1667V10.9167M11.9998 14.1667V17.4167M22.8332 12.221V13.8688C22.8332 18.0938 22.8332 20.2073 21.5635 21.5203C20.2938 22.8333 18.2518 22.8333 14.1665 22.8333H9.83317C5.74792 22.8333 3.70475 22.8333 2.43617 21.5203C1.16759 20.2073 1.1665 18.0948 1.1665 13.8688V12.221C1.1665 9.74126 1.1665 8.50192 1.72984 7.47492C2.291 6.44684 3.31909 5.80984 5.37417 4.53367L7.54084 3.18926C9.71292 1.84051 10.7995 1.16667 11.9998 1.16667C13.2002 1.16667 14.2857 1.84051 16.4588 3.18926L18.6255 4.53367C20.6806 5.80984 21.7087 6.44684 22.2709 7.47492" stroke="url(#paint0_linear_176_499)" stroke-width="1.625" stroke-linecap="round"/>
<defs>
<linearGradient id="paint0_linear_176_499" x1="11.9998" y1="1.16667" x2="11.9998" y2="22.8333" gradientUnits="userSpaceOnUse">
<stop stop-color="#923CF6"/>
<stop offset="1" stop-color="#A171DA"/>
</linearGradient>
</defs>
</svg>
