<svg width="27" height="27" viewBox="0 0 27 27" fill="none" xmlns="http://www.w3.org/2000/svg">
<g clip-path="url(#clip0_176_419)">
<path d="M2.08426 13.4412C2.08149 15.2437 2.49809 17.0221 3.30112 18.6359L3.30103 18.6359L3.30665 18.6468C3.42531 18.8755 3.45668 19.1395 3.39501 19.3895L2.7456 21.8191C2.64837 22.1825 2.64846 22.5652 2.74586 22.9286C2.84325 23.292 3.03452 23.6234 3.30047 23.8895C3.56642 24.1556 3.8977 24.3471 4.26104 24.4447C4.62438 24.5423 5.00701 24.5427 5.37052 24.4457L5.37112 24.4455L7.80123 23.7949C8.05146 23.7328 8.3158 23.7639 8.54482 23.8825L8.54478 23.8826L8.5548 23.8876C10.1188 24.6673 11.8833 25.1058 13.7483 25.1058C20.1904 25.1058 25.4124 19.8838 25.4124 13.4417C25.4124 6.99968 20.1904 1.77766 13.7483 1.77766C7.30646 1.77766 2.08457 6.99937 2.08426 13.4412ZM2.08426 13.4412C2.08426 13.441 2.08426 13.4408 2.08426 13.4406L2.80665 13.4417M2.08426 13.4412C2.08426 13.4413 2.08426 13.4415 2.08426 13.4417H2.80665M2.80665 13.4417C2.80665 7.39865 7.70524 2.50006 13.7483 2.50006C19.7914 2.50006 24.69 7.39865 24.69 13.4417C24.69 19.4848 19.7914 24.3834 13.7483 24.3834C11.9977 24.3834 10.3433 23.972 8.87709 23.2411M2.80665 13.4417C2.80398 15.1324 3.19468 16.8005 3.94787 18.3141C4.14853 18.7008 4.20069 19.1476 4.09449 19.5702L3.44346 22.0058C3.37898 22.2468 3.37904 22.5006 3.44363 22.7416C3.50822 22.9826 3.63507 23.2024 3.81144 23.3788C3.98782 23.5553 4.20752 23.6823 4.44848 23.7471C4.68945 23.8118 4.9432 23.812 5.18428 23.7477L8.87709 23.2411M8.87709 23.2411C8.4899 23.0405 8.04266 22.9888 7.61989 23.0956L8.87709 23.2411ZM12.3921 9.95026C12.9393 10.1815 13.655 10.6187 14.7049 11.2637C15.7394 11.8996 16.4433 12.3346 16.899 12.7185C17.3452 13.0945 17.4026 13.2978 17.4026 13.4417C17.4026 13.5857 17.3452 13.789 16.899 14.1649C16.4433 14.5488 15.7394 14.9838 14.7049 15.6197C13.6549 16.2648 12.9395 16.7019 12.3924 16.9332C11.8504 17.1623 11.6863 17.097 11.6056 17.0482C11.511 16.9907 11.3644 16.8456 11.277 16.22C11.1899 15.5973 11.1882 14.7181 11.1882 13.4417C11.1882 12.1653 11.1899 11.2862 11.277 10.6634C11.3646 10.037 11.5114 9.89234 11.606 9.83504C11.6859 9.78663 11.8496 9.72099 12.3921 9.95026Z" stroke="white" stroke-opacity="0.75" stroke-width="1.4448" stroke-linecap="round" stroke-linejoin="round"/>
</g>
<defs>
<clipPath id="clip0_176_419">
<rect width="26.26" height="26.26" fill="white" transform="translate(0.618164 0.311707)"/>
</clipPath>
</defs>
</svg>

