<svg width="200" height="180" viewBox="0 0 200 180" fill="none" xmlns="http://www.w3.org/2000/svg">
<g filter="url(#filter0_d_110_70)">
<path fill-rule="evenodd" clip-rule="evenodd" d="M74.0029 22.7566C79.8077 23.9969 85.0171 25.9815 92.4591 29.7025L99.5539 33.2747L106.649 29.7025C117.365 24.2946 125.006 22.0124 132.547 22.0124C144.206 22.0124 152.095 28.4622 153.782 39.4764C154.873 46.4223 152.492 56.99 147.629 66.9127C146.29 69.5918 145.198 71.9733 145.198 72.1718C145.198 72.3702 146.984 74.6524 149.167 77.282C162.017 92.8606 171.295 109.531 174.173 122.232C175.165 126.598 175.314 133.99 174.47 137.116C171.89 146.642 164.399 152 153.682 152C140.882 151.95 124.658 144.608 105.408 130.12L99.4546 125.655L96.7259 127.789C82.586 138.902 68.3965 146.939 57.035 150.313C50.6845 152.198 42.8455 152.496 38.2315 151.107C32.5259 149.37 28.7553 146.294 26.225 141.333C22.9505 134.834 23.2978 125.159 27.2173 114.542C31.2856 103.478 41.3075 87.155 50.9822 75.9424C52.6194 74.0571 53.9094 72.4198 53.9094 72.1718C53.9094 71.9733 52.8675 69.7407 51.6271 67.2104C43.4409 50.441 42.9944 36.3507 50.3868 28.363C55.3978 22.8559 64.4275 20.7224 74.0029 22.7566ZM62.9883 39.9725C63.286 39.7245 64.0302 39.3772 64.5759 39.2283C66.2628 38.8314 66.7589 38.8811 70.6288 39.6749C74.2506 40.4191 76.2351 41.064 81.3453 43.2967L83.7764 44.3385L80.8492 46.6704C79.2615 47.9603 75.4413 51.2348 72.3653 53.914C69.2892 56.6427 66.7093 58.7761 66.6101 58.6769C66.0643 58.1311 63.8317 52.1279 63.1371 49.4984C62.1945 45.7773 62.0952 40.7168 62.9883 39.9725ZM128.329 39.6253C124.955 40.3695 122.376 41.2625 118.01 43.1974L115.38 44.3385L119.25 47.5138C121.383 49.2503 125.154 52.4752 127.585 54.6582C130.066 56.8908 132.199 58.7265 132.348 58.7265C132.844 58.7265 135.077 52.9713 135.97 49.4487C136.962 45.7277 137.012 40.7168 136.118 39.9725C135.027 39.0299 131.653 38.881 128.329 39.6253ZM95.7843 56.8411C71.821 74.8508 49.5941 102.188 42.9459 121.785C41.1598 126.945 40.6636 132.998 41.904 134.238C43.0451 135.379 48.701 134.883 53.9105 133.196C59.2687 131.46 67.5046 127.342 71.424 124.514C74.3512 122.381 76.7823 119.156 77.725 116.08C78.0723 114.939 78.2707 112.607 78.1219 110.325C77.8242 105.562 77.1792 104.272 70.0349 95.4405L64.6766 88.7922L66.6115 87.1054C69.3899 84.6743 73.359 82.9378 76.9312 82.6898C80.8506 82.3425 81.6941 82.789 85.6631 87.4527C90.4261 93.0094 93.9982 94.9443 99.5549 94.9443C105.112 94.9443 108.684 93.0094 113.447 87.4527C117.416 82.789 118.259 82.3425 122.179 82.6898C125.751 82.9378 129.72 84.6743 132.498 87.1054L134.433 88.7922L129.075 95.4405C121.931 104.272 121.286 105.562 120.988 110.325C120.492 119.156 124.263 123.621 137.757 130.22C144.654 133.593 151.947 135.479 155.42 134.834C157.652 134.437 158.297 132.948 157.901 129.029C156.511 115.484 140.585 90.7768 121.236 72.3205C113.496 64.8785 100.696 54.2612 99.5549 54.2612C99.3565 54.2612 97.6696 55.4023 95.7843 56.8411Z" fill="#2563EB"/>
</g>
<g filter="url(#filter1_d_110_70)">
<rect x="90.981" y="69.4216" width="17.1698" height="17.1698" rx="8.58491" fill="#FA8626"/>
</g>
<defs>
<filter id="filter0_d_110_70" x="-0.5" y="0.5" width="200.02" height="179" filterUnits="userSpaceOnUse" color-interpolation-filters="sRGB">
<feFlood flood-opacity="0" result="BackgroundImageFix"/>
<feColorMatrix in="SourceAlpha" type="matrix" values="0 0 0 0 0 0 0 0 0 0 0 0 0 0 0 0 0 0 127 0" result="hardAlpha"/>
<feOffset dy="3"/>
<feGaussianBlur stdDeviation="12.25"/>
<feComposite in2="hardAlpha" operator="out"/>
<feColorMatrix type="matrix" values="0 0 0 0 0.145098 0 0 0 0 0.388235 0 0 0 0 0.921569 0 0 0 0.41 0"/>
<feBlend mode="normal" in2="BackgroundImageFix" result="effect1_dropShadow_110_70"/>
<feBlend mode="normal" in="SourceGraphic" in2="effect1_dropShadow_110_70" result="shape"/>
</filter>
<filter id="filter1_d_110_70" x="75.781" y="54.2216" width="47.5699" height="47.5699" filterUnits="userSpaceOnUse" color-interpolation-filters="sRGB">
<feFlood flood-opacity="0" result="BackgroundImageFix"/>
<feColorMatrix in="SourceAlpha" type="matrix" values="0 0 0 0 0 0 0 0 0 0 0 0 0 0 0 0 0 0 127 0" result="hardAlpha"/>
<feMorphology radius="2" operator="dilate" in="SourceAlpha" result="effect1_dropShadow_110_70"/>
<feOffset/>
<feGaussianBlur stdDeviation="6.6"/>
<feComposite in2="hardAlpha" operator="out"/>
<feColorMatrix type="matrix" values="0 0 0 0 0.980392 0 0 0 0 0.52549 0 0 0 0 0.14902 0 0 0 1 0"/>
<feBlend mode="normal" in2="BackgroundImageFix" result="effect1_dropShadow_110_70"/>
<feBlend mode="normal" in="SourceGraphic" in2="effect1_dropShadow_110_70" result="shape"/>
</filter>
</defs>
</svg>
