<svg width="152" height="130" viewBox="0 0 152 130" fill="none" xmlns="http://www.w3.org/2000/svg">
<path fill-rule="evenodd" clip-rule="evenodd" d="M50.0029 0.756607C55.8077 1.99695 61.0171 3.98149 68.4591 7.70251L75.5539 11.2747L82.6486 7.70251C93.3651 2.29463 101.006 0.0124054 108.547 0.0124054C120.206 0.0124054 128.095 6.46217 129.782 17.4764C130.873 24.4223 128.492 34.99 123.629 44.9127C122.29 47.5918 121.198 49.9733 121.198 50.1718C121.198 50.3702 122.984 52.6524 125.167 55.282C138.017 70.8606 147.295 87.5308 150.173 100.232C151.165 104.598 151.314 111.99 150.47 115.116C147.89 124.642 140.399 130 129.682 130C116.882 129.95 100.658 122.608 81.4082 108.12L75.4546 103.655L72.7259 105.789C58.586 116.902 44.3965 124.939 33.035 128.313C26.6845 130.198 18.8455 130.496 14.2315 129.107C8.52591 127.37 4.75528 124.294 2.22498 119.333C-1.04951 112.834 -0.702221 103.159 3.21725 92.5417C7.28557 81.4779 17.3075 65.155 26.9822 53.9424C28.6194 52.0571 29.9094 50.4198 29.9094 50.1718C29.9094 49.9733 28.8675 47.7407 27.6271 45.2104C19.4409 28.441 18.9944 14.3507 26.3868 6.36295C31.3978 0.85585 40.4275 -1.27756 50.0029 0.756607ZM38.9883 17.9725C39.286 17.7245 40.0302 17.3772 40.5759 17.2283C42.2628 16.8314 42.7589 16.8811 46.6288 17.6749C50.2506 18.4191 52.2351 19.064 57.3453 21.2967L59.7764 22.3385L56.8492 24.6704C55.2615 25.9603 51.4413 29.2348 48.3653 31.914C45.2892 34.6427 42.7093 36.7761 42.6101 36.6769C42.0643 36.1311 39.8317 30.1279 39.1371 27.4984C38.1945 23.7773 38.0952 18.7168 38.9883 17.9725ZM104.329 17.6253C100.955 18.3695 98.3755 19.2625 94.0095 21.1974L91.38 22.3385L95.2498 25.5138C97.3832 27.2503 101.154 30.4752 103.585 32.6582C106.066 34.8908 108.199 36.7265 108.348 36.7265C108.844 36.7265 111.077 30.9713 111.97 27.4487C112.962 23.7277 113.012 18.7168 112.118 17.9725C111.027 17.0299 107.653 16.881 104.329 17.6253ZM71.7843 34.8411C47.821 52.8508 25.5941 80.1879 18.9459 99.7853C17.1598 104.945 16.6636 110.998 17.904 112.238C19.0451 113.379 24.701 112.883 29.9105 111.196C35.2687 109.46 43.5046 105.342 47.424 102.514C50.3512 100.381 52.7823 97.1557 53.725 94.0797C54.0723 92.9386 54.2707 90.6068 54.1219 88.3245C53.8242 83.5616 53.1792 82.2717 46.0349 73.4405L40.6766 66.7922L42.6115 65.1054C45.3899 62.6743 49.359 60.9378 52.9312 60.6898C56.8506 60.3425 57.6941 60.789 61.6631 65.4527C66.4261 71.0094 69.9982 72.9443 75.5549 72.9443C81.1117 72.9443 84.6838 71.0094 89.4467 65.4527C93.4158 60.789 94.2593 60.3425 98.1787 60.6898C101.751 60.9378 105.72 62.6743 108.498 65.1054L110.433 66.7922L105.075 73.4405C97.9307 82.2717 97.2857 83.5616 96.988 88.3245C96.4919 97.1557 100.263 101.621 113.757 108.22C120.654 111.593 127.947 113.479 131.42 112.834C133.652 112.437 134.297 110.948 133.901 107.029C132.511 93.4843 116.585 68.7768 97.2361 50.3205C89.4964 42.8785 76.6961 32.2612 75.5549 32.2612C75.3565 32.2612 73.6696 33.4023 71.7843 34.8411Z" fill="white"/>
<rect x="66.981" y="47.4216" width="17.1698" height="17.1698" rx="8.58491" fill="#FA8626"/>
</svg>
