<svg width="907" height="781" viewBox="0 0 907 781" fill="none" xmlns="http://www.w3.org/2000/svg">
<path fill-rule="evenodd" clip-rule="evenodd" d="M300.275 4.54352C335.134 11.9919 366.417 23.9094 411.108 46.2547L453.713 67.7062L496.318 46.2547C560.673 13.7795 606.555 0.0744629 651.841 0.0744629C721.857 0.0744629 769.229 38.8063 779.359 104.948C785.913 146.66 771.612 210.12 742.414 269.708C734.37 285.797 727.815 300.098 727.815 301.289C727.815 302.481 738.541 316.186 751.65 331.977C828.816 425.529 884.531 525.636 901.811 601.908C907.77 628.127 908.664 672.519 903.599 691.289C888.106 748.493 843.117 780.671 778.763 780.671C701.895 780.373 604.469 736.278 488.87 649.28L453.117 622.466L436.731 635.277C351.818 702.015 266.608 750.281 198.381 770.541C160.245 781.862 113.17 783.65 85.4622 775.308C51.1994 764.88 28.5562 746.408 13.3614 716.614C-6.30249 677.584 -4.21695 619.486 19.3201 555.728C43.751 489.288 103.934 391.266 162.032 323.933C171.864 312.611 179.61 302.779 179.61 301.289C179.61 300.098 173.354 286.69 165.905 271.495C116.746 170.793 114.064 86.1785 158.457 38.2105C188.549 5.13947 242.773 -7.67194 300.275 4.54352ZM234.131 107.928C235.919 106.438 240.388 104.353 243.665 103.459C253.795 101.075 256.774 101.373 280.013 106.14C301.763 110.609 313.68 114.482 344.368 127.89L358.967 134.146L341.388 148.149C331.854 155.896 308.913 175.56 290.441 191.648C271.969 208.035 256.476 220.846 255.88 220.25C252.603 216.973 239.196 180.923 235.025 165.132C229.364 142.787 228.768 112.397 234.131 107.928ZM626.513 105.842C606.253 110.311 590.761 115.674 564.542 127.294L548.751 134.146L571.991 153.214C584.802 163.642 607.445 183.008 622.044 196.117C636.941 209.525 649.752 220.548 650.646 220.548C653.625 220.548 667.033 185.987 672.395 164.834C678.354 142.489 678.652 112.397 673.289 107.928C666.735 102.267 646.475 101.373 626.513 105.842ZM431.076 209.226C287.172 317.377 153.696 481.541 113.773 599.226C103.047 630.212 100.068 666.56 107.516 674.009C114.369 680.861 148.333 677.882 179.617 667.752C211.794 657.324 261.252 632.595 284.789 615.613C302.367 602.802 316.966 583.436 322.627 564.964C324.712 558.111 325.904 544.108 325.01 530.403C323.223 501.801 319.35 494.054 276.447 441.022L244.269 401.098L255.889 390.968C272.573 376.369 296.408 365.941 317.86 364.452C341.397 362.366 346.462 365.047 370.297 393.054C398.899 426.423 420.35 438.042 453.719 438.042C487.088 438.042 508.54 426.423 537.142 393.054C560.977 365.047 566.042 362.366 589.579 364.452C611.03 365.941 634.865 376.369 651.55 390.968L663.169 401.098L630.992 441.022C588.089 494.054 584.216 501.801 582.428 530.403C579.449 583.436 602.092 610.25 683.131 649.876C724.544 670.135 768.341 681.457 789.197 677.584C802.604 675.2 806.477 666.262 804.094 642.725C795.752 561.388 700.114 413.015 583.918 302.183C537.44 257.492 460.572 193.733 453.719 193.733C452.528 193.733 442.398 200.586 431.076 209.226Z" fill="url(#paint0_linear_195_294)"/>
<rect x="402.232" y="284.774" width="103.107" height="103.107" rx="51.5537" fill="url(#paint1_linear_195_294)"/>
<defs>
<linearGradient id="paint0_linear_195_294" x1="141.722" y1="769.861" x2="879.155" y2="-39.0336" gradientUnits="userSpaceOnUse">
<stop stop-color="#923CF6"/>
<stop offset="1" stop-color="#A171DA"/>
</linearGradient>
<linearGradient id="paint1_linear_195_294" x1="418.345" y1="286.202" x2="515.998" y2="378.409" gradientUnits="userSpaceOnUse">
<stop stop-color="#923CF6"/>
<stop offset="1" stop-color="#A171DA"/>
</linearGradient>
</defs>
</svg>
