<svg width="17" height="17" viewBox="0 0 17 17" fill="none" xmlns="http://www.w3.org/2000/svg">
<path d="M11.8333 8.50854C11.8333 10.3502 10.3417 11.8419 8.5 11.8419C6.65833 11.8419 5.16667 10.3502 5.16667 8.50854C5.16667 6.66688 6.65833 5.17521 8.5 5.17521C10.3417 5.17521 11.8333 6.66688 11.8333 8.50854ZM11.8333 8.50854V9.75854C11.8333 10.9085 12.7667 11.8419 13.9167 11.8419C15.0667 11.8419 16 10.9085 16 9.75854V8.50854C16 4.36688 12.6417 1.00854 8.5 1.00854C4.35833 1.00854 1 4.36688 1 8.50854C1 12.6502 4.35833 16.0085 8.5 16.0085H11.8333" stroke="#060D39" stroke-opacity="0.7" stroke-width="1.66667" stroke-linecap="round" stroke-linejoin="round"/>
</svg>
