<svg width="21" height="21" viewBox="0 0 21 21" fill="none" xmlns="http://www.w3.org/2000/svg">
<path d="M20.306 8.55005H19.5005V8.50854H10.5005V12.5085H16.152C15.3275 14.837 13.112 16.5085 10.5005 16.5085C7.18699 16.5085 4.50049 13.822 4.50049 10.5085C4.50049 7.19504 7.18699 4.50854 10.5005 4.50854C12.03 4.50854 13.4215 5.08554 14.481 6.02804L17.3095 3.19954C15.5235 1.53504 13.1345 0.508545 10.5005 0.508545C4.97799 0.508545 0.500488 4.98604 0.500488 10.5085C0.500488 16.031 4.97799 20.5085 10.5005 20.5085C16.023 20.5085 20.5005 16.031 20.5005 10.5085C20.5005 9.83805 20.4315 9.18355 20.306 8.55005Z" fill="#FFC107"/>
<path d="M1.65356 5.85404L4.93906 8.26355C5.82806 6.06254 7.98106 4.50854 10.5006 4.50854C12.0301 4.50854 13.4216 5.08554 14.4811 6.02804L17.3096 3.19954C15.5236 1.53504 13.1346 0.508545 10.5006 0.508545C6.65956 0.508545 3.32856 2.67704 1.65356 5.85404Z" fill="#FF3D00"/>
<path d="M10.4997 20.5086C13.0827 20.5086 15.4297 19.5201 17.2042 17.9126L14.1092 15.2936C13.0716 16.0831 11.8035 16.51 10.4997 16.5086C7.89867 16.5086 5.69017 14.8501 4.85817 12.5356L1.59717 15.0481C3.25217 18.2866 6.61317 20.5086 10.4997 20.5086Z" fill="#4CAF50"/>
<path d="M20.3055 8.55005H19.5V8.50854H10.5V12.5085H16.1515C15.7571 13.6168 15.0467 14.5851 14.108 15.294L14.1095 15.293L17.2045 17.912C16.9855 18.111 20.5 15.5085 20.5 10.5085C20.5 9.83804 20.431 9.18354 20.3055 8.55005Z" fill="#1976D2"/>
</svg>
