<svg width="27" height="27" viewBox="0 0 27 27" fill="none" xmlns="http://www.w3.org/2000/svg">
<path d="M22.3011 7.774L15.9988 3.36459C14.281 2.16103 11.6441 2.22668 9.99196 3.50683L4.51028 7.78495C3.41613 8.63838 2.55176 10.389 2.55176 11.7676V19.3173C2.55176 22.1073 4.81664 24.3832 7.60672 24.3832H19.4016C22.1917 24.3832 24.4566 22.1183 24.4566 19.3282V11.9099C24.4566 10.4328 23.5047 8.6165 22.3011 7.774ZM14.3248 20.0066C14.3248 20.4552 13.9528 20.8272 13.5042 20.8272C13.0556 20.8272 12.6836 20.4552 12.6836 20.0066V16.7241C12.6836 16.2755 13.0556 15.9035 13.5042 15.9035C13.9528 15.9035 14.3248 16.2755 14.3248 16.7241V20.0066Z" stroke="white" stroke-opacity="0.75" stroke-width="1.64122" stroke-linecap="round" stroke-linejoin="round"/>
</svg>

