<svg width="28" height="27" viewBox="0 0 28 27" fill="none" xmlns="http://www.w3.org/2000/svg">
<path d="M4.38807 16.8522L4.38821 16.8521C4.39941 16.8432 4.40877 16.8322 4.41573 16.8197L5.04686 17.1712L4.41573 16.8197C4.42268 16.8072 4.42711 16.7935 4.42876 16.7793C4.4304 16.7651 4.42923 16.7507 4.42531 16.7369L4.38807 16.8522ZM4.38807 16.8522C3.66212 17.4274 3.2775 18.0585 3.2775 18.7063C3.2775 19.2151 3.51358 19.7126 3.96772 20.1833L3.96855 20.1841C4.42299 20.6535 5.08836 21.0874 5.92485 21.4667C7.40728 22.1394 9.4123 22.6313 11.6912 22.8437C11.8936 22.8626 12.0945 22.7953 12.2448 22.6584C12.395 22.5215 12.4806 22.3277 12.4806 22.1244V21.616C12.4806 21.5951 12.4867 21.5746 12.498 21.5571C12.5093 21.5395 12.5255 21.5255 12.5445 21.5169C12.5636 21.5083 12.5847 21.5053 12.6054 21.5084C12.6261 21.5114 12.6454 21.5204 12.6612 21.5341L12.6614 21.5343L14.3239 22.9885C14.3239 22.9885 14.3239 22.9885 14.3239 22.9885C14.3356 22.9987 14.3449 23.0113 14.3513 23.0254C14.3577 23.0395 14.3611 23.0549 14.3611 23.0704C14.3611 23.0859 14.3577 23.1012 14.3513 23.1154C14.3449 23.1295 14.3356 23.1421 14.3239 23.1523L14.3237 23.1525L12.6612 24.6077L12.6612 24.6077C12.6454 24.6215 12.6261 24.6304 12.6054 24.6335C12.5847 24.6366 12.5635 24.6336 12.5445 24.6249L12.2457 25.2827L12.5445 24.6249C12.5254 24.6163 12.5093 24.6023 12.498 24.5847L11.8905 24.9756L12.4979 24.5847C12.4866 24.5671 12.4806 24.5466 12.4806 24.5257V24.5251V23.7936C12.4806 23.419 12.1943 23.1065 11.8211 23.0739C9.45638 22.8672 7.37414 22.3627 5.83431 21.6649C4.98306 21.279 4.29267 20.8309 3.81225 20.3356C3.33201 19.8373 3.0598 19.2886 3.0598 18.7063C3.0598 17.9644 3.50133 17.2774 4.25356 16.6812L3.80484 16.115L4.25314 16.6815C4.27575 16.6636 4.30456 16.6554 4.33321 16.6587C4.36184 16.662 4.38798 16.6766 4.40591 16.6991L4.38807 16.8522ZM15.1619 18.0586L15.1619 18.0586C14.877 18.1917 14.5664 18.2608 14.252 18.2608C13.9376 18.2608 13.627 18.1917 13.3421 18.0586L13.3421 18.0586C11.8627 17.3669 10.6048 16.0296 9.712 14.3857C8.82062 12.7444 8.32438 10.8527 8.32438 9.12699C8.32438 5.77545 10.9899 3.0808 14.252 3.0808C17.514 3.0808 20.1796 5.77545 20.1796 9.12699C20.1796 10.8527 19.6834 12.7444 18.792 14.3857C17.8992 16.0296 16.6413 17.3669 15.1619 18.0586ZM23.02 21.4974L23.0197 21.4976C21.5248 22.2476 19.4326 22.798 17.034 23.0416L17.0339 23.0416C17.0051 23.0446 16.9762 23.0359 16.9538 23.0176C16.9313 22.9993 16.9171 22.9728 16.9141 22.944C16.9112 22.9152 16.9198 22.8864 16.9381 22.8639L16.3782 22.4075L16.9381 22.8639C16.9563 22.8416 16.9826 22.8274 17.0112 22.8243C19.3931 22.5836 21.4569 22.0379 22.9223 21.3029C23.6926 20.9172 24.2531 20.5058 24.6295 20.0819C25.0048 19.6591 25.2265 19.1875 25.2265 18.7063C25.2265 18.0585 24.8419 17.4274 24.1159 16.8522L24.1158 16.8521C24.1046 16.8432 24.0952 16.8322 24.0882 16.8197L23.4571 17.1712L24.0882 16.8197C24.0813 16.8072 24.0769 16.7935 24.0752 16.7793C24.0736 16.7651 24.0747 16.7507 24.0787 16.7369C24.0826 16.7232 24.0892 16.7104 24.098 16.6992C24.1159 16.6766 24.1421 16.662 24.1708 16.6587C24.1992 16.6554 24.2279 16.6635 24.2504 16.6812C25.0026 17.2774 25.4442 17.9644 25.4442 18.7063C25.4442 19.7879 24.5104 20.7506 23.02 21.4974ZM14.252 11.9475C15.0315 11.9475 15.779 11.6378 16.3302 11.0866C16.8814 10.5354 17.1911 9.78789 17.1911 9.0084C17.1911 8.22891 16.8814 7.48135 16.3302 6.93017C15.779 6.37898 15.0315 6.06933 14.252 6.06933C13.4725 6.06933 12.7249 6.37898 12.1738 6.93017C11.6226 7.48135 11.3129 8.22891 11.3129 9.0084C11.3129 9.78789 11.6226 10.5354 12.1738 11.0866C12.7249 11.6378 13.4725 11.9475 14.252 11.9475Z" stroke="white" stroke-opacity="0.75" stroke-width="1.4448" stroke-linecap="round" stroke-linejoin="round"/>
</svg>

