<svg width="26" height="26" viewBox="0 0 26 26" fill="none" xmlns="http://www.w3.org/2000/svg">
<path d="M13.0002 2.16669C11.3481 2.16669 9.76368 2.82297 8.59548 3.99117C7.42729 5.15936 6.771 6.74378 6.771 8.39585V11.6459C6.76863 13.2291 7.36919 14.7538 8.45063 15.9101C9.53208 17.0664 11.0132 17.7676 12.5931 17.8711C14.1729 17.9745 15.7329 17.4725 16.9559 16.4671C18.1789 15.4617 18.9732 14.0284 19.1773 12.4584H14.0835C13.868 12.4584 13.6614 12.3728 13.509 12.2204C13.3566 12.068 13.271 11.8613 13.271 11.6459C13.271 11.4304 13.3566 11.2237 13.509 11.0713C13.6614 10.919 13.868 10.8334 14.0835 10.8334H19.2293V9.20835H14.0835C13.868 9.20835 13.6614 9.12275 13.509 8.97038C13.3566 8.818 13.271 8.61134 13.271 8.39585C13.271 8.18037 13.3566 7.9737 13.509 7.82133C13.6614 7.66896 13.868 7.58335 14.0835 7.58335H19.1763C18.9791 6.0849 18.2439 4.70922 17.1076 3.71266C15.9714 2.71611 14.5115 2.16665 13.0002 2.16669Z" fill="white"/>
<path fill-rule="evenodd" clip-rule="evenodd" d="M4.3335 9.75C4.54898 9.75 4.75565 9.8356 4.90802 9.98798C5.06039 10.1403 5.146 10.347 5.146 10.5625V11.6458C5.146 12.6773 5.34915 13.6986 5.74386 14.6515C6.13857 15.6044 6.7171 16.4702 7.44643 17.1996C8.17576 17.9289 9.04159 18.5074 9.9945 18.9021C10.9474 19.2968 11.9687 19.5 13.0002 19.5C14.0316 19.5 15.0529 19.2968 16.0058 18.9021C16.9587 18.5074 17.8246 17.9289 18.5539 17.1996C19.2832 16.4702 19.8618 15.6044 20.2565 14.6515C20.6512 13.6986 20.8543 12.6773 20.8543 11.6458V10.5625C20.8543 10.347 20.9399 10.1403 21.0923 9.98798C21.2447 9.8356 21.4513 9.75 21.6668 9.75C21.8823 9.75 22.089 9.8356 22.2414 9.98798C22.3937 10.1403 22.4793 10.347 22.4793 10.5625V11.6458C22.4794 14.0192 21.5891 16.3063 19.9844 18.0551C18.3797 19.8038 16.1773 20.8869 13.8127 21.0903V23.5625C13.8127 23.778 13.7271 23.9847 13.5747 24.137C13.4223 24.2894 13.2157 24.375 13.0002 24.375C12.7847 24.375 12.578 24.2894 12.4256 24.137C12.2733 23.9847 12.1877 23.778 12.1877 23.5625V21.0903C9.82298 20.8869 7.62065 19.8038 6.01595 18.0551C4.41125 16.3063 3.52094 14.0192 3.521 11.6458V10.5625C3.521 10.347 3.6066 10.1403 3.75897 9.98798C3.91135 9.8356 4.11801 9.75 4.3335 9.75Z" fill="white"/>
</svg>
