<svg width="18" height="18" viewBox="0 0 18 18" fill="none" xmlns="http://www.w3.org/2000/svg">
<path fill-rule="evenodd" clip-rule="evenodd" d="M3.37508 6.76107V5.67523C3.37508 4.18339 3.96771 2.75265 5.02261 1.69776C6.0775 0.642864 7.50824 0.0502319 9.00008 0.0502319C10.4919 0.0502319 11.9227 0.642864 12.9776 1.69776C14.0324 2.75265 14.6251 4.18339 14.6251 5.67523V6.76107C14.814 6.77384 14.9923 6.79162 15.1601 6.8144C15.9101 6.9144 16.5417 7.13106 17.0434 7.6319C17.5451 8.13356 17.7601 8.76523 17.8617 9.51523C17.9584 10.2377 17.9584 11.1569 17.9584 12.2961V12.3877C17.9584 13.5269 17.9584 14.4461 17.8617 15.1686C17.7601 15.9186 17.5451 16.5502 17.0434 17.0519C16.5417 17.5536 15.9101 17.7686 15.1601 17.8702C14.4376 17.9669 13.5184 17.9669 12.3792 17.9669H5.62091C4.48175 17.9669 3.56258 17.9669 2.84008 17.8702C2.09008 17.7686 1.45841 17.5536 0.956748 17.0519C0.455081 16.5502 0.240081 15.9186 0.139248 15.1686C0.041748 14.4461 0.041748 13.5269 0.041748 12.3877V12.2961C0.041748 11.1569 0.041748 10.2377 0.139248 9.51523C0.239248 8.76523 0.455915 8.13356 0.956748 7.6319C1.45841 7.13023 2.09008 6.91523 2.84008 6.8144C3.0073 6.79162 3.18564 6.77384 3.37508 6.76107ZM4.62508 5.67523C4.62508 4.51491 5.08602 3.40211 5.90649 2.58164C6.72696 1.76117 7.83976 1.30023 9.00008 1.30023C10.1604 1.30023 11.2732 1.76117 12.0937 2.58164C12.9141 3.40211 13.3751 4.51491 13.3751 5.67523V6.7194C13.064 6.71718 12.732 6.71634 12.3792 6.7169H5.62091C5.26869 6.7169 4.93675 6.71773 4.62508 6.7194V5.67523ZM1.84091 8.51607C2.07175 8.28523 2.39508 8.13523 3.00758 8.05273C3.63591 7.96856 4.47091 7.9669 5.66675 7.9669H12.3334C13.5292 7.9669 14.3634 7.96856 14.9934 8.05273C15.6051 8.13523 15.9284 8.28607 16.1592 8.51607C16.3901 8.7469 16.5401 9.07023 16.6226 9.68273C16.7067 10.3119 16.7084 11.1461 16.7084 12.3419C16.7084 13.5377 16.7067 14.3719 16.6226 15.0019C16.5401 15.6136 16.3892 15.9369 16.1592 16.1677C15.9284 16.3986 15.6051 16.5486 14.9926 16.6311C14.3634 16.7152 13.5292 16.7169 12.3334 16.7169H5.66675C4.47091 16.7169 3.63591 16.7152 3.00675 16.6311C2.39508 16.5486 2.07175 16.3977 1.84091 16.1677C1.61008 15.9369 1.46008 15.6136 1.37758 15.0011C1.29341 14.3719 1.29175 13.5377 1.29175 12.3419C1.29175 11.1461 1.29341 10.3111 1.37758 9.6819C1.46008 9.07023 1.61091 8.7469 1.84091 8.51607Z" fill="#060D39" fill-opacity="0.7"/>
</svg>
