<svg width="18" height="18" viewBox="0 0 18 18" fill="none" xmlns="http://www.w3.org/2000/svg">
<path d="M6.49992 12.3419C6.49992 12.5629 6.41212 12.7749 6.25584 12.9311C6.09956 13.0874 5.8876 13.1752 5.66659 13.1752C5.44557 13.1752 5.23361 13.0874 5.07733 12.9311C4.92105 12.7749 4.83325 12.5629 4.83325 12.3419C4.83325 12.1209 4.92105 11.9089 5.07733 11.7526C5.23361 11.5963 5.44557 11.5085 5.66659 11.5085C5.8876 11.5085 6.09956 11.5963 6.25584 11.7526C6.41212 11.9089 6.49992 12.1209 6.49992 12.3419ZM9.83325 12.3419C9.83325 12.5629 9.74545 12.7749 9.58917 12.9311C9.43289 13.0874 9.22093 13.1752 8.99992 13.1752C8.7789 13.1752 8.56694 13.0874 8.41066 12.9311C8.25438 12.7749 8.16659 12.5629 8.16659 12.3419C8.16659 12.1209 8.25438 11.9089 8.41066 11.7526C8.56694 11.5963 8.7789 11.5085 8.99992 11.5085C9.22093 11.5085 9.43289 11.5963 9.58917 11.7526C9.74545 11.9089 9.83325 12.1209 9.83325 12.3419ZM12.3333 13.1752C12.5543 13.1752 12.7662 13.0874 12.9225 12.9311C13.0788 12.7749 13.1666 12.5629 13.1666 12.3419C13.1666 12.1209 13.0788 11.9089 12.9225 11.7526C12.7662 11.5963 12.5543 11.5085 12.3333 11.5085C12.1122 11.5085 11.9003 11.5963 11.744 11.7526C11.5877 11.9089 11.4999 12.1209 11.4999 12.3419C11.4999 12.5629 11.5877 12.7749 11.744 12.9311C11.9003 13.0874 12.1122 13.1752 12.3333 13.1752Z" fill="#060D39" fill-opacity="0.7"/>
<path fill-rule="evenodd" clip-rule="evenodd" d="M3.37508 5.67523V6.76107C3.18619 6.77384 3.00786 6.79162 2.84008 6.8144C2.09008 6.9144 1.45841 7.13106 0.956748 7.6319C0.455081 8.13356 0.240081 8.76523 0.139248 9.51523C0.041748 10.2377 0.041748 11.1569 0.041748 12.2961V12.3877C0.041748 13.5269 0.041748 14.4461 0.139248 15.1686C0.239248 15.9186 0.455915 16.5502 0.956748 17.0519C1.45841 17.5536 2.09008 17.7686 2.84008 17.8702C3.56258 17.9669 4.48175 17.9669 5.62091 17.9669H12.3792C13.5184 17.9669 14.4376 17.9669 15.1601 17.8702C15.9101 17.7686 16.5417 17.5536 17.0434 17.0519C17.5451 16.5502 17.7601 15.9186 17.8617 15.1686C17.9584 14.4461 17.9584 13.5269 17.9584 12.3877V12.2961C17.9584 11.1569 17.9584 10.2377 17.8617 9.51523C17.7601 8.76523 17.5451 8.13356 17.0434 7.6319C16.5417 7.13023 15.9101 6.91523 15.1601 6.8144C14.9824 6.79087 14.8039 6.77308 14.6251 6.76107V5.67523C14.6251 4.18339 14.0324 2.75265 12.9776 1.69776C11.9227 0.642864 10.4919 0.0502319 9.00008 0.0502319C7.50824 0.0502319 6.0775 0.642864 5.02261 1.69776C3.96771 2.75265 3.37508 4.18339 3.37508 5.67523ZM9.00008 1.30023C7.83976 1.30023 6.72696 1.76117 5.90649 2.58164C5.08602 3.40211 4.62508 4.51491 4.62508 5.67523V6.7194C4.93619 6.71718 5.26814 6.71634 5.62091 6.7169H12.3792C12.732 6.7169 13.064 6.71773 13.3751 6.7194V5.67523C13.3751 3.25857 11.4167 1.30023 9.00008 1.30023ZM3.00675 8.05273C2.39508 8.13523 2.07175 8.28607 1.84091 8.51607C1.61008 8.7469 1.46008 9.07023 1.37758 9.68273C1.29341 10.3119 1.29175 11.1461 1.29175 12.3419C1.29175 13.5377 1.29341 14.3719 1.37758 15.0019C1.46008 15.6136 1.61091 15.9369 1.84091 16.1677C2.07175 16.3986 2.39508 16.5486 3.00758 16.6311C3.63591 16.7152 4.47091 16.7169 5.66675 16.7169H12.3334C13.5292 16.7169 14.3634 16.7152 14.9934 16.6311C15.6051 16.5486 15.9284 16.3977 16.1592 16.1677C16.3901 15.9369 16.5401 15.6136 16.6226 15.0011C16.7067 14.3719 16.7084 13.5377 16.7084 12.3419C16.7084 11.1461 16.7067 10.3111 16.6226 9.6819C16.5401 9.07023 16.3892 8.7469 16.1592 8.51607C15.9284 8.28523 15.6051 8.13523 14.9926 8.05273C14.3634 7.96856 13.5292 7.9669 12.3334 7.9669H5.66675C4.47091 7.9669 3.63591 7.96856 3.00675 8.05273Z" fill="#060D39" fill-opacity="0.7"/>
</svg>
