<svg width="27" height="27" viewBox="0 0 27 27" fill="none" xmlns="http://www.w3.org/2000/svg">
<path fill-rule="evenodd" clip-rule="evenodd" d="M24.69 13.4417C24.69 19.4848 19.7914 24.3834 13.7483 24.3834C11.9977 24.3834 10.3433 23.972 8.87709 23.2411C8.48991 23.0405 8.04266 22.9887 7.61989 23.0956L5.18428 23.7477C4.9432 23.812 4.68945 23.8118 4.44848 23.7471C4.20752 23.6823 3.98782 23.5553 3.81144 23.3788C3.63507 23.2024 3.50822 22.9826 3.44363 22.7416C3.37904 22.5006 3.37898 22.2468 3.44346 22.0058L4.09449 19.5702C4.20069 19.1476 4.14853 18.7008 3.94787 18.3141C3.19468 16.8005 2.80398 15.1324 2.80665 13.4417C2.80665 7.39865 7.70524 2.50006 13.7483 2.50006C19.7914 2.50006 24.69 7.39865 24.69 13.4417ZM18.125 13.4417C18.125 12.5183 17.1107 11.8946 15.0832 10.6483C13.0262 9.38456 11.9977 8.75322 11.2317 9.21715C10.4658 9.68108 10.4658 10.935 10.4658 13.4417C10.4658 15.9485 10.4658 17.2024 11.2317 17.6663C11.9987 18.1302 13.0262 17.4989 15.0832 16.2351C17.1107 14.9889 18.125 14.3652 18.125 13.4417Z" fill="white"/>
</svg>

