<svg width="28" height="27" viewBox="0 0 28 27" fill="none" xmlns="http://www.w3.org/2000/svg">
<path fill-rule="evenodd" clip-rule="evenodd" d="M7.60199 9.12699C7.60199 5.38858 10.579 2.3584 14.252 2.3584C17.925 2.3584 20.902 5.38858 20.902 9.12699C20.902 12.8366 18.7795 17.1646 15.4678 18.713C15.0872 18.8909 14.6722 18.9832 14.252 18.9832C13.8318 18.9832 13.4168 18.8909 13.0361 18.713C9.72444 17.1646 7.60199 12.8366 7.60199 9.12699ZM14.252 11.2251C14.8399 11.2251 15.4037 10.9915 15.8194 10.5758C16.2351 10.1601 16.4687 9.59629 16.4687 9.0084C16.4687 8.4205 16.2351 7.85668 15.8194 7.44098C15.4037 7.02527 14.8399 6.79173 14.252 6.79173C13.6641 6.79173 13.1003 7.02527 12.6846 7.44098C12.2689 7.85668 12.0353 8.4205 12.0353 9.0084C12.0353 9.59629 12.2689 10.1601 12.6846 10.5758C13.1003 10.9915 13.6641 11.2251 14.252 11.2251ZM4.97191 16.2502C5.03977 16.3358 5.09011 16.4339 5.12004 16.5389C5.14998 16.644 5.15892 16.7539 5.14636 16.8624C5.13381 16.9708 5.09999 17.0758 5.04686 17.1712C4.99372 17.2666 4.92231 17.3506 4.83669 17.4184C4.20162 17.9216 3.9999 18.3661 3.9999 18.7063C3.9999 18.9756 4.12182 19.3026 4.48757 19.6816C4.85775 20.064 5.4363 20.4519 6.22322 20.8088C7.61307 21.4395 9.53492 21.9172 11.7582 22.1244V21.6157C11.7583 21.456 11.8044 21.2997 11.8909 21.1655C11.9775 21.0313 12.1008 20.9249 12.2462 20.859C12.3917 20.793 12.553 20.7704 12.711 20.7937C12.869 20.8171 13.0169 20.8854 13.137 20.9906L14.7995 22.4447C14.8887 22.5227 14.9602 22.6189 15.0091 22.7268C15.0581 22.8347 15.0835 22.9519 15.0835 23.0704C15.0835 23.1889 15.0581 23.306 15.0091 23.4139C14.9602 23.5218 14.8887 23.618 14.7995 23.696L13.137 25.1513C13.0168 25.2565 12.8688 25.3249 12.7107 25.3482C12.5526 25.3715 12.3912 25.3487 12.2457 25.2827C12.1003 25.2166 11.9769 25.11 11.8905 24.9756C11.804 24.8413 11.7581 24.6848 11.7582 24.5251V23.7936C9.33653 23.5819 7.16974 23.0632 5.53605 22.3228C4.63387 21.9138 3.85693 21.4195 3.29279 20.8376C2.72643 20.2502 2.3374 19.5309 2.3374 18.7063C2.3374 17.6534 2.96583 16.78 3.80484 16.115C3.97758 15.9783 4.19752 15.9158 4.41635 15.9411C4.63518 15.9665 4.835 16.0777 4.97191 16.2502ZM23.5321 16.2502C23.669 16.0777 23.8688 15.9665 24.0876 15.9411C24.3064 15.9158 24.5264 15.9783 24.6991 16.115C25.5381 16.78 26.1666 17.6534 26.1666 18.7063C26.1666 20.2336 24.872 21.3774 23.3436 22.1433C21.7465 22.9446 19.562 23.5109 17.1071 23.7603C16.8876 23.7827 16.6683 23.7169 16.4973 23.5775C16.3264 23.4382 16.2178 23.2366 16.1954 23.0172C16.1731 22.7977 16.2389 22.5784 16.3782 22.4075C16.5176 22.2365 16.7192 22.1279 16.9386 22.1056C19.2639 21.8706 21.2356 21.3408 22.5988 20.657C24.033 19.9388 24.5041 19.2128 24.5041 18.7063C24.5041 18.3661 24.3024 17.9216 23.6673 17.4184C23.5817 17.3506 23.5103 17.2666 23.4571 17.1712C23.404 17.0758 23.3702 16.9708 23.3576 16.8624C23.3451 16.7539 23.354 16.644 23.3839 16.5389C23.4139 16.4339 23.4642 16.3358 23.5321 16.2502Z" fill="white"/>
</svg>

