<svg width="28" height="27" viewBox="0 0 28 27" fill="none" xmlns="http://www.w3.org/2000/svg">
<g clip-path="url(#clip0_11_170)">
<path d="M13.9844 10.1738C14.321 10.1738 14.6313 10.2618 14.9153 10.4376L18.418 12.6064C19.0597 12.9972 19.6382 13.471 20.1536 14.0278L22.4573 16.519C22.878 16.9684 23.0305 17.4862 22.9148 18.0723L21.7788 24.1245C21.7157 24.4371 21.5605 24.6984 21.3133 24.9084C21.0661 25.1185 20.7742 25.243 20.4376 25.2821L12.1225 26.1027L6.5686 26.5717H6.42659C6.01636 26.5717 5.66135 26.4349 5.36156 26.1614C5.06178 25.8878 4.91188 25.5557 4.91188 25.1649C4.91188 24.8034 5.05389 24.4908 5.3379 24.227C5.6219 23.9633 5.96377 23.807 6.36348 23.7581L10.4658 23.2892H3.39718C2.9659 23.2892 2.60038 23.1426 2.30059 22.8496C2.0008 22.5565 1.86143 22.2097 1.88247 21.8091C1.90351 21.4281 2.07181 21.1106 2.38737 20.8566C2.70293 20.6026 3.06583 20.4756 3.47607 20.4756L10.45 20.461L2.22959 19.5231C1.79832 19.4742 1.4512 19.2935 1.18823 18.9809C0.925256 18.6683 0.825327 18.3117 0.88844 17.9112C0.951553 17.5692 1.133 17.2884 1.43279 17.0685C1.73257 16.8487 2.07707 16.7388 2.46626 16.7388H2.62404L10.2134 17.6181L4.67521 16.2406C4.2755 16.1429 3.94941 15.9402 3.69696 15.6325C3.44451 15.3247 3.34984 14.9901 3.41295 14.6287C3.47607 14.277 3.64963 13.9912 3.93364 13.7714C4.21764 13.5516 4.54373 13.4417 4.91188 13.4417C4.975 13.4417 5.08019 13.4514 5.22745 13.471L12.2961 14.8778L15.72 15.42C15.7305 15.42 15.7463 15.4224 15.7673 15.4273C15.7883 15.4322 15.8041 15.4346 15.8146 15.4346C16.0566 15.4346 16.217 15.3223 16.2959 15.0976C16.3748 14.8729 16.309 14.697 16.0986 14.57L13.1639 12.7383C12.7957 12.5136 12.5748 12.2034 12.5012 11.8078C12.4276 11.4121 12.5222 11.0531 12.7852 10.7307C13.0692 10.3594 13.4689 10.1738 13.9844 10.1738ZM12.8799 13.1339L15.8146 14.9657L12.375 14.4235L12.2961 14.3942L11.7281 13.8373L7.97286 9.99798C7.96234 9.98821 7.94919 9.97112 7.93341 9.94669C7.91763 9.92227 7.90449 9.90517 7.89397 9.89541C7.64152 9.59256 7.54422 9.25063 7.60207 8.86962C7.65992 8.48862 7.85715 8.176 8.19375 7.93177C8.51984 7.70707 8.87748 7.62159 9.26667 7.67532C9.65587 7.72905 9.99247 7.89269 10.2765 8.16623L12.517 10.3204C12.4959 10.3301 12.4696 10.3472 12.4381 10.3717C12.4065 10.3961 12.3855 10.4181 12.375 10.4376C12.0384 10.8772 11.9174 11.3608 12.0121 11.8884C12.1068 12.4159 12.396 12.8311 12.8799 13.1339ZM26.8752 6.48102L27.1118 10.379C27.1539 11.0921 27.0961 11.8102 26.9383 12.5331L26.1809 15.7424C26.0547 16.3188 25.7023 16.7437 25.1238 17.0173L23.4513 17.8086C23.4723 17.2029 23.2672 16.6704 22.8359 16.2113L20.5323 13.7201C19.9748 13.1242 19.3595 12.6211 18.6863 12.2107L15.1835 10.0419C14.8259 9.81725 14.4261 9.7049 13.9844 9.7049C13.4479 9.7049 12.9851 9.88564 12.5959 10.2471L8.88799 5.67505C8.62502 5.35266 8.53035 4.99364 8.60399 4.59798C8.67762 4.20232 8.89325 3.89214 9.25089 3.66745C9.59801 3.45252 9.97406 3.38414 10.379 3.46229C10.784 3.54045 11.1127 3.73583 11.3652 4.04845L15.5622 9.20667L11.4283 2.53909C11.2074 2.19716 11.1522 1.83081 11.2626 1.44004C11.3731 1.04926 11.6229 0.761067 12.0121 0.57545C12.3802 0.399602 12.7615 0.370294 13.156 0.487526C13.5505 0.604758 13.8529 0.829453 14.0632 1.16161L17.8658 7.3163L15.72 2.37789C15.5622 2.03597 15.5385 1.6745 15.649 1.2935C15.7594 0.912492 15.9935 0.638951 16.3511 0.472872C16.7403 0.287254 17.14 0.257946 17.5502 0.384948C17.9605 0.511949 18.255 0.761067 18.4338 1.1323L21.479 7.21372L23.0726 10.0859C23.1568 10.2324 23.2777 10.3179 23.4355 10.3424C23.5933 10.3668 23.7353 10.3301 23.8615 10.2324C23.9877 10.1348 24.0456 10.0078 24.0351 9.85144L23.8457 6.56894C23.8247 6.1684 23.9614 5.82159 24.256 5.52851C24.5505 5.23543 24.9134 5.084 25.3447 5.07423C25.7549 5.07423 26.1073 5.21345 26.4018 5.49187C26.6963 5.7703 26.8541 6.10001 26.8752 6.48102Z" fill="white"/>
</g>
<defs>
<clipPath id="clip0_11_170">
<rect width="26.26" height="26.26" fill="white" transform="translate(0.870117 0.311707)"/>
</clipPath>
</defs>
</svg>

