<svg width="28" height="27" viewBox="0 0 28 27" fill="none" xmlns="http://www.w3.org/2000/svg">
<g clip-path="url(#clip0_176_415)">
<path d="M10.8421 13.6391L6.41825 12.7587C6.403 12.7557 6.38766 12.7531 6.37226 12.7511C6.24177 12.7338 6.10732 12.719 5.99944 12.719C5.51964 12.719 5.07611 12.8663 4.69613 13.1604C4.30543 13.4628 4.05621 13.872 3.96887 14.3587L3.96886 14.3587L3.96828 14.3621C3.88665 14.8296 3.98966 15.267 4.23745 15.6459L4.06855 15.6264C4.04096 15.6232 4.0132 15.6216 3.98542 15.6216H3.84652C3.35797 15.6216 2.90345 15.7628 2.50958 16.0516C2.10843 16.3458 1.83857 16.7495 1.74714 17.2448L1.74394 17.2635C1.65554 17.8246 1.80359 18.3488 2.16862 18.7827C2.46098 19.1303 2.83354 19.355 3.2598 19.46C2.87219 19.7972 2.6403 20.2424 2.61129 20.7676L2.61119 20.7695C2.58124 21.3399 2.79096 21.8442 3.19567 22.2399C3.59881 22.634 4.10364 22.8327 4.66602 22.8327H5.53311C5.36727 23.1071 5.27705 23.4195 5.27705 23.7616C5.27705 24.3173 5.50102 24.8007 5.90838 25.1724C6.30698 25.5361 6.79374 25.7224 7.33287 25.7224H7.45788C7.47816 25.7224 7.49844 25.7215 7.51866 25.7198L12.4079 25.307L12.4079 25.3071L12.4181 25.3061L19.738 24.5837L19.738 24.5838L19.7504 24.5823C20.1818 24.5322 20.5742 24.3679 20.9057 24.0863C21.2446 23.7983 21.4675 23.4257 21.5558 22.9886L21.5559 22.9886L21.5577 22.9789L22.4948 17.9866C22.5405 17.9752 22.5855 17.9592 22.629 17.9387L24.1011 17.2421C24.1012 17.2421 24.1012 17.2421 24.1013 17.2421C24.7913 16.9158 25.2625 16.3708 25.4273 15.6274L26.0927 12.8075L26.0928 12.8075L26.0954 12.7956C26.2479 12.097 26.3047 11.3988 26.2636 10.7027L26.2635 10.7015L26.0554 7.27399C26.0554 7.27325 26.0553 7.2725 26.0553 7.27176C26.0254 6.74051 25.7975 6.28098 25.4137 5.9181C25.0185 5.54449 24.53 5.353 23.9868 5.353L23.9704 5.35319C23.4133 5.36581 22.9149 5.56909 22.5188 5.96324C22.1199 6.3602 21.9161 6.86317 21.9458 7.42911L21.9461 7.43282L22.0421 9.09826L21.2229 7.6217L18.5512 2.28633C18.3023 1.77326 17.8807 1.42499 17.3388 1.25726L17.1252 1.94734L17.3388 1.25726C16.8047 1.09188 16.2667 1.13133 15.7619 1.37113C15.2905 1.59106 14.9573 1.96122 14.7897 2.44498L14.6701 2.25135L14.6702 2.25133L14.6658 2.24452C14.3826 1.79727 13.9688 1.49559 13.4627 1.34518C12.9457 1.19154 12.4258 1.23054 11.9389 1.463L10.8421 13.6391ZM10.8421 13.6391L8.18269 10.9202C8.12963 10.8673 8.09075 10.8139 8.06761 10.7796C7.71804 10.3589 7.57085 9.8521 7.65345 9.3081C7.73586 8.76542 8.02518 8.32484 8.46428 8.00624L8.47864 7.99609C8.76577 7.79823 9.0799 7.67898 9.41093 7.64174M10.8421 13.6391L9.41093 7.64174M10.976 3.95241C10.7997 3.55203 10.771 3.11828 10.8949 2.67967C11.0525 2.12214 11.4216 1.70983 11.9385 1.46319L10.976 3.95241ZM10.976 3.95241C10.9671 3.95058 10.9581 3.9488 10.9492 3.94707C10.4165 3.84427 9.9005 3.93695 9.43886 4.22279L9.43885 4.22277L9.43484 4.22529C8.95872 4.52443 8.6432 4.96653 8.53946 5.52398C8.43437 6.08869 8.57914 6.61817 8.93915 7.06C8.9394 7.06031 8.93965 7.06062 8.9399 7.06092L9.41093 7.64174M10.976 3.95241L9.41093 7.64174M22.4392 10.3036L22.4027 10.2564L22.4392 10.3036Z" stroke="white" stroke-opacity="0.75" stroke-width="1.4448" stroke-linecap="round" stroke-linejoin="round"/>
</g>
<defs>
<clipPath id="clip0_176_415">
<rect width="26.26" height="26.26" fill="white" transform="translate(0.870117 0.311707)"/>
</clipPath>
</defs>
</svg>

