<svg width="18" height="16" viewBox="0 0 18 16" fill="none" xmlns="http://www.w3.org/2000/svg">
<path fill-rule="evenodd" clip-rule="evenodd" d="M9 4.875C8.1712 4.875 7.37634 5.20424 6.79029 5.79029C6.20424 6.37634 5.875 7.1712 5.875 8C5.875 8.8288 6.20424 9.62366 6.79029 10.2097C7.37634 10.7958 8.1712 11.125 9 11.125C9.8288 11.125 10.6237 10.7958 11.2097 10.2097C11.7958 9.62366 12.125 8.8288 12.125 8C12.125 7.1712 11.7958 6.37634 11.2097 5.79029C10.6237 5.20424 9.8288 4.875 9 4.875ZM7.125 8C7.125 7.50272 7.32254 7.02581 7.67417 6.67417C8.02581 6.32254 8.50272 6.125 9 6.125C9.49728 6.125 9.97419 6.32254 10.3258 6.67417C10.6775 7.02581 10.875 7.50272 10.875 8C10.875 8.49728 10.6775 8.97419 10.3258 9.32582C9.97419 9.67746 9.49728 9.875 9 9.875C8.50272 9.875 8.02581 9.67746 7.67417 9.32582C7.32254 8.97419 7.125 8.49728 7.125 8Z" fill="#060D39" fill-opacity="0.7"/>
<path fill-rule="evenodd" clip-rule="evenodd" d="M8.99984 0.708313C5.23817 0.708313 2.704 2.96165 1.23317 4.87248L1.20734 4.90665C0.874004 5.33915 0.568171 5.73665 0.360671 6.20665C0.138171 6.71081 0.0415039 7.25998 0.0415039 7.99998C0.0415039 8.73998 0.138171 9.28915 0.360671 9.79331C0.569004 10.2633 0.874837 10.6616 1.20734 11.0933L1.234 11.1275C2.704 13.0383 5.23817 15.2916 8.99984 15.2916C12.7615 15.2916 15.2957 13.0383 16.7665 11.1275L16.7923 11.0933C17.1257 10.6616 17.4315 10.2633 17.639 9.79331C17.8615 9.28915 17.9582 8.73998 17.9582 7.99998C17.9582 7.25998 17.8615 6.71081 17.639 6.20665C17.4307 5.73665 17.1248 5.33915 16.7923 4.90665L16.7657 4.87248C15.2957 2.96165 12.7615 0.708313 8.99984 0.708313ZM2.22484 5.63498C3.5815 3.87081 5.7915 1.95831 8.99984 1.95831C12.2082 1.95831 14.4173 3.87081 15.7748 5.63498C16.1415 6.10998 16.3548 6.39331 16.4957 6.71165C16.6273 7.00998 16.7082 7.37415 16.7082 7.99998C16.7082 8.62581 16.6273 8.98998 16.4957 9.28831C16.3548 9.60665 16.1407 9.88998 15.7757 10.365C14.4165 12.1291 12.2082 14.0416 8.99984 14.0416C5.7915 14.0416 3.58234 12.1291 2.22484 10.365C1.85817 9.88998 1.64484 9.60665 1.504 9.28831C1.37234 8.98998 1.2915 8.62581 1.2915 7.99998C1.2915 7.37415 1.37234 7.00998 1.504 6.71165C1.64484 6.39331 1.85984 6.10998 2.22484 5.63498Z" fill="#060D39" fill-opacity="0.7"/>
</svg>
